<svg xmlns="http://www.w3.org/2000/svg" viewBox="0 0 1284 804" fill="currentColor" class="h-10 w-auto text-portfolio-primary hover:text-portfolio-secondary">
  <path d="M6630 2218c67-34 103-92 104-167 1-51-4-66-29-103-19-27-49-52-80-68-28-14-52-26-54-27-5-3-43-545-38-550 3-3 277-52 295-53 1 0 2 6 2 14 0 7 18 32 41 55 151 150 393-12 309-208l-23-53 32-31c26-27 34-30 49-19 57 40 116 63 170 64 31 2 66-1 78-5 19-7 23 1 51 104l31 111-35 31c-58 54-61 141-7 198 56 59 145 57 202-5 27-30 32-43 32-83 0-81-56-143-130-145-27-1-29-5-60-110-18-61-28-113-24-117 5-4 27-21 50-38 58-46 96-120 102-205 4-62 2-74-27-133-38-78-98-128-179-151-97-29-213 5-280 81l-37 42-243-105-242-105 0-36c0-20 4-41 8-47 4-7 209-52 457-102l449-90 40 45c47 53 88 73 150 73 58 0 93-14 135-53 68-64 83-170 35-244-41-62-96-93-166-93-67 0-99 14-145 62-34 36-53 75-53 113 0 15-7 25-22 28-23 6-888 177-893 177-2 0-15-20-29-44-35-60-90-103-155-122l-54-16 6-112c4-61 7-157 7-213 0-101 0-103 23-103 13 0 44-13 69-29 117-75 117-242-1-322-29-19-48-24-103-24-59 0-70 3-104 31-57 46-75 75-81 136-8 77 22 139 85 179 25 16 55 29 65 29 19 0 20 5 14 113-4 61-7 157-7 213l0 101-57 16c-63 17-128 66-162 121-50 81-46 208 8 283l28 39-31 36c-30 36-32 37-71 26-58-16-106-4-145 37-63 65-48 166 32 215 114 69 254-63 193-181-15-28-14-31 11-64 14-19 30-35 34-35 4 0 32 11 62 25 29 14 61 25 71 25 9 0 17 6 18 13 0 6 8 143 18 302 10 160 15 293 12 296-3 3-108 23-233 44l-227 38-40-36c-41-37-47-40-111-41-33-1-37-5-137-168l-102-168 25-27c40-43 56-82 62-149 6-74-7-117-54-178-18-24-34-47-34-50 0-3 57-93 126-201l127-196 41 6c72 11 135-31 157-103 10-35 9-48-6-87-37-98-160-120-232-41-29 31-33 43-33 90 0 38 6 60 20 79 11 14 20 28 20 30 0 4-240 375-255 395-2 2-26-4-54-14-49-16-110-15-152 1-11 4-33-18-74-75l-58-81 24-42c50-90 17-206-73-257-51-29-135-32-183-8-132 69-141 260-16 340 42 27 52 29 120 26l73-3 50 71 50 71-35 46c-58 76-71 182-33 268 5 12-9 26-55 57l-63 41-28-21c-39-27-96-33-141-15-96 41-105 192-14 247 101 62 230-26 213-144l-6-41 60-38 61-38 35 31c64 56 121 69 253 57 22-2 37 18 128 163 65 104 101 170 97 180-27 64-28 70-16 112 7 24 14 48 15 54 1 7-47 66-108 133-90 101-113 121-130 115-81-27-154-5-187 57-52 97 14 209 125 209 99 0 167-113 121-201l-15-30 112-122c68-74 119-121 128-119 114 23 167 4 195-70l17-43 232-42c128-22 233-40 234-39 2 1 9 97 18 212 8 115 17 237 21 271l5 62-33 14c-46 19-95 81-106 134-34 159 124 283 268 211zm-3558-3415c14-17 418-962 418-979 0-4-7-16-17-26-15-17-44-18-504-18-430 0-489 2-503 16-23 22-20 40 17 114l32 65 341 5 341 5-111 267c-61 147-114 268-117 268-3 0-47-100-98-222-51-123-100-229-109-235-19-16-145-17-173-3-11 6-19 21-19 36 0 21 254 635 291 707 8 14 24 17 103 17 76 0 96-3 108-17zm1309-15c114-56 170-141 171-257 1-82-15-141-49-181l-26-32 31-25c57-44 85-106 90-198 4-68 1-89-18-133-28-65-92-123-169-154-53-22-71-23-351-26-292-3-295-3-312 19-25 29-25 129 0 158 16 20 27 21 299 23 268 3 283 4 310 24 57 42 52 122-10 168-27 20-44 21-309 26-322 6-308 1-308 101 0 100-7 98 285 101 213 3 255 6 281 20 60 33 70 120 18 169-25 24-27 24-291 29-306 6-293 1-293 104 0 102-13 98 315 94l280-3 56-27zm713 10c13-18 16-52 16-158 0-173-1-175-103-175-108 0-107-2-107 172 0 80 5 153 10 164 9 16 22 19 90 19 70 0 81-2 94-22zm636 3c5-11 10-26 10-34 0-8-75-86-167-173-93-87-169-161-171-165-2-4 88-137 199-295 112-159 202-297 202-307-3-39-22-47-112-47-78 0-90 2-108 23-11 12-91 125-177 250-87 125-161 227-166 225-4-2-35-29-69-60l-61-57 0-168c0-212-1-213-102-213-111 0-108-8-108 247l0 215 93 87c50 49 189 179 307 289l215 202 102 0c91 0 103-2 113-19zm498 7c8-8 12-59 12-162 0-184-1-186-101-186-99 0-99 0-99 184 0 105 4 156 12 164 16 16 160 16 176 0zm660 0c9-9 12-135 12-504 0-434-2-494-16-508-11-12-35-16-89-16-106 0-105-2-105 232l0 188-225 0-225 0 0-198c0-141-3-201-12-210-7-7-42-12-88-12-46 0-81 5-88 12-17 17-17 579 0 596 9 9 95 12 325 12l313 0 0 188c0 235-1 232 109 232 46 0 82-5 89-12zm880-1c20-23 412-958 412-980 0-13-5-28-12-35-17-17-989-17-1006 0-18 18-15 49 9 104 40 91 9 84 386 84 183 0 333 3 333 7 0 4-50 128-112 276-80 192-114 264-119 250-50-129-192-448-201-455-7-4-46-8-85-8-61 0-77 4-94 21-11 11-19 28-16 37 7 28 290 686 300 700 13 17 191 17 205-1zm856-9c13-18 16-52 16-160 0-170-5-178-103-178-105 0-107 3-107 184 0 105 4 156 12 164 7 7 43 12 89 12 69 0 80-3 93-22zm993 7c106-32 196-119 225-218 20-71 14-184-12-245-24-56-105-138-146-148-13-3-24-9-24-12 0-3 46-75 103-161 57-86 106-165 110-175 5-11 1-28-8-42-14-22-22-24-100-24-56 0-88 4-97 13-7 8-60 89-117 180l-105 167-122 0-123 0-3-166c-4-196-3-194-109-194-103 0-99-13-99 284 0 191 3 256 13 264 7 6 113 12 272 14 210 3 267 7 295 19 51 24 72 52 77 106 4 39 0 55-19 83-44 66-63 70-343 70-305 0-295-3-295 104 0 43 5 77 12 84 19 19 549 17 615-3zm741 3c8-8 12-59 12-164 0-181-2-184-107-184-98 0-103 8-103 178 0 179 2 182 109 182 46 0 82-5 89-12zm-1736-416c10-10 14-83 16-289 4-336 8-323-103-323-54 0-78 4-89 16-14 13-16 55-16 299 0 283 0 284 23 300 26 20 149 17 169-3zm1726 2c22-15 22-17 22-295 0-174-4-288-10-300-9-16-22-19-90-19-115 0-110-14-110 307 0 267 5 307 39 316 41 11 128 6 149-9z"/>
</svg>