<?xml version="1.0" standalone="no"?>
<!DOCTYPE svg PUBLIC "-//W3C//DTD SVG 20010904//EN"
 "http://www.w3.org/TR/2001/REC-SVG-20010904/DTD/svg10.dtd">
<svg version="1.0" xmlns="http://www.w3.org/2000/svg"
 width="1284.000000pt" height="804.000000pt" viewBox="0 0 1284.000000 804.000000"
 preserveAspectRatio="xMidYMid meet">

<g transform="translate(0.000000,804.000000) scale(0.100000,-0.100000)"
fill="#000000" stroke="none">
<path d="M0 4020 l0 -4020 6420 0 6420 0 0 4020 0 4020 -6420 0 -6420 0 0
-4020z m6630 2218 c67 -34 103 -92 104 -167 1 -51 -4 -66 -29 -103 -19 -27
-49 -52 -80 -68 -28 -14 -52 -26 -54 -27 -5 -3 -43 -545 -38 -550 3 -3 277
-52 295 -53 1 0 2 6 2 14 0 7 18 32 41 55 151 150 393 -12 309 -208 l-23 -53
32 -31 c26 -27 34 -30 49 -19 57 40 116 63 170 64 31 2 66 -1 78 -5 19 -7 23
1 51 104 l31 111 -35 31 c-58 54 -61 141 -7 198 56 59 145 57 202 -5 27 -30
32 -43 32 -83 0 -81 -56 -143 -130 -145 -27 -1 -29 -5 -60 -110 -18 -61 -28
-113 -24 -117 5 -4 27 -21 50 -38 58 -46 96 -120 102 -205 4 -62 2 -74 -27
-133 -38 -78 -98 -128 -179 -151 -97 -29 -213 5 -280 81 l-37 42 -243 -105
-242 -105 0 -36 c0 -20 4 -41 8 -47 4 -7 209 -52 457 -102 l449 -90 40 45 c47
53 88 73 150 73 58 0 93 -14 135 -53 68 -64 83 -170 35 -244 -41 -62 -96 -93
-166 -93 -67 0 -99 14 -145 62 -34 36 -53 75 -53 113 0 15 -7 25 -22 28 -23 6
-888 177 -893 177 -2 0 -15 -20 -29 -44 -35 -60 -90 -103 -155 -122 l-54 -16
6 -112 c4 -61 7 -157 7 -213 0 -101 0 -103 23 -103 13 0 44 -13 69 -29 117
-75 117 -242 -1 -322 -29 -19 -48 -24 -103 -24 -59 0 -70 3 -104 31 -57 46
-75 75 -81 136 -8 77 22 139 85 179 25 16 55 29 65 29 19 0 20 5 14 113 -4 61
-7 157 -7 213 l0 101 -57 16 c-63 17 -128 66 -162 121 -50 81 -46 208 8 283
l28 39 -31 36 c-30 36 -32 37 -71 26 -58 -16 -106 -4 -145 37 -63 65 -48 166
32 215 114 69 254 -63 193 -181 -15 -28 -14 -31 11 -64 14 -19 30 -35 34 -35
4 0 32 11 62 25 29 14 61 25 71 25 9 0 17 6 18 13 0 6 8 143 18 302 10 160 15
293 12 296 -3 3 -108 23 -233 44 l-227 38 -40 -36 c-41 -37 -47 -40 -111 -41
-33 -1 -37 -5 -137 -168 l-102 -168 25 -27 c40 -43 56 -82 62 -149 6 -74 -7
-117 -54 -178 -18 -24 -34 -47 -34 -50 0 -3 57 -93 126 -201 l127 -196 41 6
c72 11 135 -31 157 -103 10 -35 9 -48 -6 -87 -37 -98 -160 -120 -232 -41 -29
31 -33 43 -33 90 0 38 6 60 20 79 11 14 20 28 20 30 0 4 -240 375 -255 395 -2
2 -26 -4 -54 -14 -49 -16 -110 -15 -152 1 -11 4 -33 -18 -74 -75 l-58 -81 24
-42 c50 -90 17 -206 -73 -257 -51 -29 -135 -32 -183 -8 -132 69 -141 260 -16
340 42 27 52 29 120 26 l73 -3 50 71 50 71 -35 46 c-58 76 -71 182 -33 268 5
12 -9 26 -55 57 l-63 41 -28 -21 c-39 -27 -96 -33 -141 -15 -96 41 -105 192
-14 247 101 62 230 -26 213 -144 l-6 -41 60 -38 61 -38 35 31 c64 56 121 69
253 57 22 -2 37 18 128 163 65 104 101 170 97 180 -27 64 -28 70 -16 112 7 24
14 48 15 54 1 7 -47 66 -108 133 -90 101 -113 121 -130 115 -81 -27 -154 -5
-187 57 -52 97 14 209 125 209 99 0 167 -113 121 -201 l-15 -30 112 -122 c68
-74 119 -121 128 -119 114 23 167 4 195 -70 l17 -43 232 -42 c128 -22 233 -40
234 -39 2 1 9 97 18 212 8 115 17 237 21 271 l5 62 -33 14 c-46 19 -95 81
-106 134 -34 159 124 283 268 211z m-3558 -3415 c14 -17 418 -962 418 -979 0
-4 -7 -16 -17 -26 -15 -17 -44 -18 -504 -18 -430 0 -489 2 -503 16 -23 22 -20
40 17 114 l32 65 341 5 341 5 -111 267 c-61 147 -114 268 -117 268 -3 0 -47
-100 -98 -222 -51 -123 -100 -229 -109 -235 -19 -16 -145 -17 -173 -3 -11 6
-19 21 -19 36 0 21 254 635 291 707 8 14 24 17 103 17 76 0 96 -3 108 -17z
m1309 -15 c114 -56 170 -141 171 -257 1 -82 -15 -141 -49 -181 l-26 -32 31
-25 c57 -44 85 -106 90 -198 4 -68 1 -89 -18 -133 -28 -65 -92 -123 -169 -154
-53 -22 -71 -23 -351 -26 -292 -3 -295 -3 -312 19 -25 29 -25 129 0 158 16 20
27 21 299 23 268 3 283 4 310 24 57 42 52 122 -10 168 -27 20 -44 21 -309 26
-322 6 -308 1 -308 101 0 100 -7 98 285 101 213 3 255 6 281 20 60 33 70 120
18 169 -25 24 -27 24 -291 29 -306 6 -293 1 -293 104 0 102 -13 98 315 94
l280 -3 56 -27z m713 10 c13 -18 16 -52 16 -158 0 -173 -1 -175 -103 -175
-108 0 -107 -2 -107 172 0 80 5 153 10 164 9 16 22 19 90 19 70 0 81 -2 94
-22z m636 3 c5 -11 10 -26 10 -34 0 -8 -75 -86 -167 -173 -93 -87 -169 -161
-171 -165 -2 -4 88 -137 199 -295 112 -159 202 -297 202 -307 -3 -39 -22 -47
-112 -47 -78 0 -90 2 -108 23 -11 12 -91 125 -177 250 -87 125 -161 227 -166
225 -4 -2 -35 -29 -69 -60 l-61 -57 0 -168 c0 -212 -1 -213 -102 -213 -111 0
-108 -8 -108 247 l0 215 93 87 c50 49 189 179 307 289 l215 202 102 0 c91 0
103 -2 113 -19z m498 7 c8 -8 12 -59 12 -162 0 -184 -1 -186 -101 -186 -99 0
-99 0 -99 184 0 105 4 156 12 164 16 16 160 16 176 0z m660 0 c9 -9 12 -135
12 -504 0 -434 -2 -494 -16 -508 -11 -12 -35 -16 -89 -16 -106 0 -105 -2 -105
232 l0 188 -225 0 -225 0 0 -198 c0 -141 -3 -201 -12 -210 -7 -7 -42 -12 -88
-12 -46 0 -81 5 -88 12 -17 17 -17 579 0 596 9 9 95 12 325 12 l313 0 0 188
c0 235 -1 232 109 232 46 0 82 -5 89 -12z m880 -1 c20 -23 412 -958 412 -980
0 -13 -5 -28 -12 -35 -17 -17 -989 -17 -1006 0 -18 18 -15 49 9 104 40 91 9
84 386 84 183 0 333 3 333 7 0 4 -50 128 -112 276 -80 192 -114 264 -119 250
-50 -129 -192 -448 -201 -455 -7 -4 -46 -8 -85 -8 -61 0 -77 4 -94 21 -11 11
-19 28 -16 37 7 28 290 686 300 700 13 17 191 17 205 -1z m856 -9 c13 -18 16
-52 16 -160 0 -170 -5 -178 -103 -178 -105 0 -107 3 -107 184 0 105 4 156 12
164 7 7 43 12 89 12 69 0 80 -3 93 -22z m993 7 c106 -32 196 -119 225 -218 20
-71 14 -184 -12 -245 -24 -56 -105 -138 -146 -148 -13 -3 -24 -9 -24 -12 0 -3
46 -75 103 -161 57 -86 106 -165 110 -175 5 -11 1 -28 -8 -42 -14 -22 -22 -24
-100 -24 -56 0 -88 4 -97 13 -7 8 -60 89 -117 180 l-105 167 -122 0 -123 0 -3
-166 c-4 -196 -3 -194 -109 -194 -103 0 -99 -13 -99 284 0 191 3 256 13 264 7
6 113 12 272 14 210 3 267 7 295 19 51 24 72 52 77 106 4 39 0 55 -19 83 -44
66 -63 70 -343 70 -305 0 -295 -3 -295 104 0 43 5 77 12 84 19 19 549 17 615
-3z m741 3 c8 -8 12 -59 12 -164 0 -181 -2 -184 -107 -184 -98 0 -103 8 -103
178 0 179 2 182 109 182 46 0 82 -5 89 -12z m-1736 -416 c10 -10 14 -83 16
-289 4 -336 8 -323 -103 -323 -54 0 -78 4 -89 16 -14 13 -16 55 -16 299 0 283
0 284 23 300 26 20 149 17 169 -3z m1726 2 c22 -15 22 -17 22 -295 0 -174 -4
-288 -10 -300 -9 -16 -22 -19 -90 -19 -115 0 -110 -14 -110 307 0 267 5 307
39 316 41 11 128 6 149 -9z"/>
<path d="M6495 6186 c-43 -19 -66 -49 -72 -94 -15 -109 109 -174 191 -101 43
37 54 81 33 132 -25 59 -95 88 -152 63z"/>
<path d="M5380 5910 c-41 -41 -10 -110 50 -110 37 0 70 31 70 65 0 34 -33 65
-70 65 -17 0 -39 -9 -50 -20z"/>
<path d="M7599 5498 c-16 -5 -32 -22 -39 -39 -11 -26 -10 -34 7 -57 27 -37 66
-40 98 -8 29 29 32 67 8 88 -26 22 -45 26 -74 16z"/>
<path d="M5800 5443 c-22 -28 -21 -63 2 -90 18 -22 85 -16 102 9 21 30 20 50
-5 82 -28 35 -70 35 -99 -1z"/>
<path d="M6966 5320 c-89 -27 -113 -152 -39 -210 29 -23 118 -27 143 -7 47 37
64 106 38 161 -21 47 -86 73 -142 56z"/>
<path d="M6520 5236 c0 -11 -9 -145 -20 -296 -11 -151 -20 -280 -20 -286 0 -6
19 -16 41 -23 23 -7 63 -32 90 -58 33 -31 53 -43 66 -39 10 3 119 50 242 104
l224 97 1 81 c1 65 6 89 28 131 l26 51 -32 31 -32 31 -42 -20 c-49 -24 -131
-26 -171 -6 -46 24 -100 92 -107 135 -6 36 -9 39 -48 44 -22 4 -87 15 -143 25
l-103 19 0 -21z"/>
<path d="M4922 5080 c-28 -26 -28 -60 -1 -94 26 -33 68 -34 97 -3 63 67 -29
159 -96 97z"/>
<path d="M7370 5021 c-103 -33 -160 -106 -160 -206 0 -223 298 -290 396 -88
22 45 26 62 21 104 -8 69 -48 133 -101 164 -46 27 -116 39 -156 26z"/>
<path d="M5333 4885 c-76 -46 -105 -153 -63 -235 66 -129 256 -127 319 2 26
54 26 100 2 153 -46 101 -163 137 -258 80z"/>
<path d="M6045 4805 c-30 -30 -31 -54 -4 -89 26 -33 68 -34 97 -3 29 30 28 62
-3 92 -31 32 -59 32 -90 0z"/>
<path d="M6340 4558 c-26 -14 -57 -41 -75 -66 -26 -37 -30 -53 -30 -107 0 -54
4 -69 30 -107 46 -64 96 -90 171 -86 144 8 225 143 165 273 -49 105 -159 144
-261 93z"/>
<path d="M5035 4316 c-51 -23 -78 -60 -78 -109 0 -111 126 -165 204 -88 36 36
45 73 30 121 -19 65 -96 103 -156 76z"/>
<path d="M7765 4233 c-77 -20 -114 -99 -81 -176 37 -91 176 -94 222 -6 28 55
6 141 -43 167 -25 13 -74 21 -98 15z"/>
<path d="M5850 4033 c-25 -32 -20 -69 12 -95 27 -23 49 -23 82 3 50 39 22 119
-43 119 -20 0 -36 -9 -51 -27z"/>
<path d="M6405 3601 c-45 -20 -70 -60 -70 -112 0 -42 5 -53 33 -81 28 -28 39
-33 82 -33 43 0 54 5 82 33 28 28 33 39 33 82 0 42 -5 54 -31 81 -33 33 -92
46 -129 30z"/>
</g>
</svg>
